<svg xmlns="http://www.w3.org/2000/svg" viewBox="0 180 1600 520" role="img" aria-labelledby="title desc">
  <title id="title">Learn2Design 2026 logo</title>
  <desc id="desc">The Learn2Design 2026 wordmark with a gravitational-wave visualization.</desc>
  <defs>
    <linearGradient id="orbitGradient" x1="150" y1="450" x2="860" y2="450" gradientUnits="userSpaceOnUse">
      <stop offset="0" stop-color="#0877d1"/>
      <stop offset="0.46" stop-color="#4c9be8"/>
      <stop offset="0.54" stop-color="#f5a24a"/>
      <stop offset="1" stop-color="#f57c00"/>
    </linearGradient>
    <linearGradient id="waveGradient" x1="30" y1="0" x2="1080" y2="0" gradientUnits="userSpaceOnUse">
      <stop offset="0" stop-color="#0877d1"/>
      <stop offset="0.49" stop-color="#0877d1"/>
      <stop offset="0.51" stop-color="#f57c00"/>
      <stop offset="1" stop-color="#f57c00"/>
    </linearGradient>
    <radialGradient id="hole" cx="35%" cy="30%" r="75%">
      <stop offset="0" stop-color="#0b1837"/>
      <stop offset="1" stop-color="#010716"/>
    </radialGradient>
    <clipPath id="gridClip">
      <ellipse cx="500" cy="455" rx="285" ry="165"/>
    </clipPath>
  </defs>
  <!-- Learn2Design2026 logo -->
  <g fill="none" stroke="url(#orbitGradient)" stroke-linecap="round">
    <path d="M190 335 C315 220 660 190 830 315" stroke-width="2.2" opacity=".95"/>
    <path d="M165 380 C310 265 675 250 820 360" stroke-width="2" opacity=".85"/>
    <path d="M150 430 C315 315 675 310 800 410" stroke-width="1.8" opacity=".72"/>
    <path d="M160 490 C315 600 680 585 815 470" stroke-width="2" opacity=".78"/>
    <path d="M180 550 C335 675 675 650 835 515" stroke-width="2.2" opacity=".88"/>
    <path d="M230 605 C390 710 695 665 855 555" stroke-width="2" opacity=".65"/>
  </g>
  <g clip-path="url(#gridClip)" fill="none" stroke="#8fa6bf" stroke-width="1.2" opacity=".48">
    <path d="M205 350 C330 410 395 410 500 360 C610 310 685 315 795 365"/>
    <path d="M195 385 C320 440 395 445 500 395 C615 345 695 345 805 395"/>
    <path d="M190 420 C315 475 400 480 500 430 C615 380 700 380 810 430"/>
    <path d="M190 455 C315 510 400 515 500 465 C615 415 700 415 810 465"/>
    <path d="M195 490 C320 545 400 550 500 500 C610 450 695 450 805 500"/>
    <path d="M205 525 C330 580 400 585 500 535 C605 485 685 485 795 535"/>
    <path d="M230 555 C350 610 410 615 500 570 C595 525 665 520 770 565"/>
    <path d="M300 310 C300 405 345 445 420 455 C500 465 540 515 540 610"/>
    <path d="M340 295 C335 390 370 430 435 445 C510 462 560 515 565 620"/>
    <path d="M385 285 C375 380 400 420 450 438 C520 462 580 520 590 620"/>
    <path d="M435 280 C420 375 430 415 465 435 C530 470 600 525 620 610"/>
    <path d="M490 280 C470 375 465 415 485 440 C540 490 615 535 650 595"/>
    <path d="M545 285 C520 375 505 415 510 445 C555 500 630 540 685 575"/>
    <path d="M600 300 C575 385 545 420 540 450 C570 500 650 535 725 550"/>
    <path d="M650 320 C625 395 585 425 570 455 C590 495 675 520 760 520"/>
  </g>
  <circle cx="445" cy="455" r="45" fill="url(#hole)"/>
  <circle cx="600" cy="415" r="43" fill="url(#hole)"/>
  <path d="M30 430 C45 430 48 410 60 430 C72 450 76 390 90 430 C104 470 110 340 126 430 C142 520 148 315 166 430 C184 545 192 335 210 430 C228 520 236 365 254 430 C272 490 280 395 298 430 C316 465 324 410 342 430 C360 450 370 418 390 430 C410 442 425 426 445 430 C470 435 495 435 520 430 C545 425 560 442 580 430 C600 418 610 450 628 430 C646 410 654 465 672 430 C690 395 698 490 716 430 C734 365 742 520 760 430 C778 335 786 545 804 430 C822 315 830 520 848 430 C866 340 874 470 890 430 C906 390 912 450 926 430 C940 410 946 442 958 430 C970 418 976 438 988 430 C1000 422 1006 434 1020 430 C1035 426 1048 430 1060 430" fill="none" stroke="url(#waveGradient)" stroke-width="3.2" stroke-linecap="round"/>
  <!-- <g class="wordmark">
    <text x="560" y="550" font-size="106" letter-spacing="-2.5" fill="#071126">Learn</text>
    <text x="925" y="550" font-size="106" letter-spacing="-2.5" fill="#f57c00">2</text>
    <text x="1015" y="550" font-size="106" letter-spacing="-2.5" fill="#071126">Design</text>
    <text x="1180" y="650" font-size="77" letter-spacing="22" fill="#0877d1">2</text>
    <text x="1250" y="650" font-size="77" letter-spacing="22" fill="#f57c00">0</text>
    <text x="1320" y="650" font-size="77" letter-spacing="22" fill="#0877d1">2</text>
    <text x="1390" y="650" font-size="77" letter-spacing="22" fill="#f57c00">6</text>
  </g> -->
  <g id="learn2design-wordmark" transform="translate(570 570) scale(1.45) translate(-570 -550)">
<path fill="#071126" d="M567.125 550.0V493.0H574.25V544.0625H619.375V550.0Z"/>
<path fill="#071126" d="M672.947265625 537.30859375Q672.947265625 542.095703125 671.5185546875 544.841796875Q670.08984375 547.587890625 667.158203125 548.849609375Q664.2265625 550.111328125 659.6806640625 550.4638671875Q655.134765625 550.81640625 648.86328125 550.81640625Q641.701171875 550.81640625 636.7099609375 550.0927734375Q631.71875 549.369140625 628.6572265625 547.1240234375Q625.595703125 544.87890625 624.2041015625 540.388671875Q622.8125 535.8984375 622.8125 528.40234375Q622.8125 521.12890625 624.1669921875 516.75Q625.521484375 512.37109375 628.564453125 510.14453125Q631.607421875 507.91796875 636.5615234375 507.17578125Q641.515625 506.43359375 648.677734375 506.43359375Q656.87890625 506.43359375 662.259765625 507.583984375Q667.640625 508.734375 670.2939453125 511.962890625Q672.947265625 515.19140625 672.947265625 521.42578125V530.591796875H629.974609375Q630.01171875 535.341796875 630.642578125 538.19921875Q631.2734375 541.056640625 633.166015625 542.50390625Q635.05859375 543.951171875 638.8251953125 544.4150390625Q642.591796875 544.87890625 648.86328125 544.87890625Q654.50390625 544.87890625 657.9736328125 544.65625Q661.443359375 544.43359375 663.2431640625 543.6728515625Q665.04296875 542.912109375 665.673828125 541.390625Q666.3046875 539.869140625 666.3046875 537.30859375ZM648.677734375 512.37109375Q642.62890625 512.37109375 638.9365234375 512.81640625Q635.244140625 513.26171875 633.314453125 514.5419921875Q631.384765625 515.822265625 630.6982421875 518.345703125Q630.01171875 520.869140625 629.974609375 524.98828125H666.119140625V521.42578125Q666.119140625 518.75390625 665.5068359375 516.9912109375Q664.89453125 515.228515625 663.11328125 514.2080078125Q661.33203125 513.1875 657.8623046875 512.779296875Q654.392578125 512.37109375 648.677734375 512.37109375Z"/>
<path fill="#071126" d="M702.212890625 550.81640625Q694.53125 550.81640625 689.5400390625 550.0185546875Q684.548828125 549.220703125 682.1181640625 546.51171875Q679.6875 543.802734375 679.6875 538.087890625Q679.6875 532.26171875 681.9697265625 529.5341796875Q684.251953125 526.806640625 689.2060546875 525.990234375Q694.16015625 525.173828125 702.212890625 525.173828125Q708.744140625 525.173828125 713.16015625 525.470703125Q717.576171875 525.767578125 721.064453125 526.509765625Q720.990234375 521.57421875 720.396484375 518.7353515625Q719.802734375 515.896484375 718.169921875 514.5234375Q716.537109375 513.150390625 713.4013671875 512.7607421875Q710.265625 512.37109375 705.0703125 512.37109375Q699.1328125 512.37109375 695.7744140625 512.630859375Q692.416015625 512.890625 690.89453125 513.55859375Q689.373046875 514.2265625 688.9833984375 515.48828125Q688.59375 516.75 688.59375 518.75390625H681.46875Q681.46875 514.74609375 682.5634765625 512.296875Q683.658203125 509.84765625 686.29296875 508.5859375Q688.927734375 507.32421875 693.5107421875 506.87890625Q698.09375 506.43359375 705.0703125 506.43359375Q712.56640625 506.43359375 717.1494140625 507.3984375Q721.732421875 508.36328125 724.1259765625 510.8681640625Q726.51953125 513.373046875 727.3544921875 517.86328125Q728.189453125 522.353515625 728.189453125 529.44140625V550.0H721.064453125V547.068359375Q719.802734375 548.404296875 717.576171875 549.220703125Q715.349609375 550.037109375 711.6572265625 550.4267578125Q707.96484375 550.81640625 702.212890625 550.81640625ZM702.212890625 545.02734375Q708.55859375 545.02734375 712.34375 544.87890625Q716.12890625 544.73046875 718.0029296875 544.0625Q719.876953125 543.39453125 720.470703125 541.91015625Q721.064453125 540.42578125 721.064453125 537.75390625V531.185546875L702.212890625 530.962890625Q697.203125 530.888671875 694.1416015625 531.0927734375Q691.080078125 531.296875 689.484375 531.9833984375Q687.888671875 532.669921875 687.3505859375 534.1357421875Q686.8125 535.6015625 686.8125 538.087890625Q686.8125 540.5 687.3505859375 541.91015625Q687.888671875 543.3203125 689.484375 543.98828125Q691.080078125 544.65625 694.1416015625 544.841796875Q697.203125 545.02734375 702.212890625 545.02734375Z"/>
<path fill="#071126" d="M735.783203125 550.0V507.25H742.908203125V513.150390625Q744.095703125 511.2578125 745.3017578125 509.99609375Q746.5078125 508.734375 748.4560546875 507.9921875Q750.404296875 507.25 753.744140625 506.9345703125Q757.083984375 506.619140625 762.5390625 506.619140625V512.59375Q755.19140625 512.59375 751.1650390625 513.11328125Q747.138671875 513.6328125 745.39453125 514.8759765625Q743.650390625 516.119140625 743.279296875 518.30859375Q742.908203125 520.498046875 742.908203125 523.875V550.0Z"/>
<path fill="#071126" d="M769.279296875 550.0V507.25H776.404296875V512.927734375Q778.0 510.775390625 780.3564453125 509.328125Q782.712890625 507.880859375 786.6650390625 507.1572265625Q790.6171875 506.43359375 797.037109375 506.43359375Q805.423828125 506.43359375 810.2666015625 508.06640625Q815.109375 509.69921875 817.150390625 513.892578125Q819.19140625 518.0859375 819.19140625 525.767578125V550.0H812.029296875V525.767578125Q812.029296875 521.388671875 811.287109375 518.716796875Q810.544921875 516.044921875 808.7451171875 514.671875Q806.9453125 513.298828125 803.791015625 512.8349609375Q800.63671875 512.37109375 795.775390625 512.37109375Q788.353515625 512.37109375 784.123046875 513.595703125Q779.892578125 514.8203125 778.1484375 517.4365234375Q776.404296875 520.052734375 776.404296875 524.24609375V550.0Z"/>
<path fill="#f57c00" d="M826.16015625 536.232421875Q826.16015625 531.259765625 827.087890625 527.8828125Q828.015625 524.505859375 830.650390625 522.46484375Q833.28515625 520.423828125 838.3134765625 519.5146484375Q843.341796875 518.60546875 851.505859375 518.568359375H864.791015625Q870.580078125 518.568359375 873.8271484375 518.1787109375Q877.07421875 517.7890625 878.55859375 516.6943359375Q880.04296875 515.599609375 880.3955078125 513.5029296875Q880.748046875 511.40625 880.748046875 507.9921875Q880.748046875 504.4296875 880.080078125 502.388671875Q879.412109375 500.34765625 877.4453125 499.419921875Q875.478515625 498.4921875 871.6376953125 498.232421875Q867.796875 497.97265625 861.451171875 497.97265625H853.361328125Q846.71875 497.97265625 842.7294921875 498.232421875Q838.740234375 498.4921875 836.69921875 499.419921875Q834.658203125 500.34765625 833.9716796875 502.388671875Q833.28515625 504.4296875 833.28515625 507.9921875H826.16015625Q826.16015625 503.130859375 827.2548828125 499.9765625Q828.349609375 496.822265625 831.2255859375 495.041015625Q834.1015625 493.259765625 839.37109375 492.5361328125Q844.640625 491.8125 852.990234375 491.8125H861.822265625Q869.875 491.8125 874.99609375 492.5361328125Q880.1171875 493.259765625 882.9189453125 495.041015625Q885.720703125 496.822265625 886.796875 499.9765625Q887.873046875 503.130859375 887.873046875 507.9921875Q887.873046875 514.2265625 886.2216796875 517.8447265625Q884.5703125 521.462890625 880.4326171875 523.0029296875Q876.294921875 524.54296875 868.76171875 524.54296875H852.43359375Q845.791015625 524.54296875 841.931640625 524.98828125Q838.072265625 525.43359375 836.216796875 526.6767578125Q834.361328125 527.919921875 833.8232421875 530.220703125Q833.28515625 532.521484375 833.28515625 536.232421875V544.0625H885.609375V550.0H826.16015625Z"/>
<path fill="#071126" d="M892.2734375 550.0V493.0H934.578125Q942.927734375 493.0 948.30859375 494.001953125Q953.689453125 495.00390625 956.7138671875 497.8798828125Q959.73828125 500.755859375 960.9443359375 506.248046875Q962.150390625 511.740234375 962.150390625 520.7578125V522.2421875Q962.150390625 530.962890625 960.9443359375 536.4365234375Q959.73828125 541.91015625 956.7138671875 544.8603515625Q953.689453125 547.810546875 948.30859375 548.9052734375Q942.927734375 550.0 934.578125 550.0ZM899.3984375 543.83984375H934.578125Q941.220703125 543.83984375 945.265625 543.208984375Q949.310546875 542.578125 951.42578125 540.462890625Q953.541015625 538.34765625 954.283203125 534.005859375Q955.025390625 529.6640625 955.025390625 522.2421875V520.7578125Q955.025390625 514.59765625 954.580078125 510.58984375Q954.134765625 506.58203125 952.9287109375 504.2626953125Q951.72265625 501.943359375 949.4404296875 500.8486328125Q947.158203125 499.75390625 943.521484375 499.45703125Q939.884765625 499.16015625 934.578125 499.16015625H899.3984375Z"/>
<path fill="#071126" d="M1018.09765625 537.30859375Q1018.09765625 542.095703125 1016.6689453125 544.841796875Q1015.240234375 547.587890625 1012.30859375 548.849609375Q1009.376953125 550.111328125 1004.8310546875 550.4638671875Q1000.28515625 550.81640625 994.013671875 550.81640625Q986.8515625 550.81640625 981.8603515625 550.0927734375Q976.869140625 549.369140625 973.8076171875 547.1240234375Q970.74609375 544.87890625 969.3544921875 540.388671875Q967.962890625 535.8984375 967.962890625 528.40234375Q967.962890625 521.12890625 969.3173828125 516.75Q970.671875 512.37109375 973.71484375 510.14453125Q976.7578125 507.91796875 981.7119140625 507.17578125Q986.666015625 506.43359375 993.828125 506.43359375Q1002.029296875 506.43359375 1007.41015625 507.583984375Q1012.791015625 508.734375 1015.4443359375 511.962890625Q1018.09765625 515.19140625 1018.09765625 521.42578125V530.591796875H975.125Q975.162109375 535.341796875 975.79296875 538.19921875Q976.423828125 541.056640625 978.31640625 542.50390625Q980.208984375 543.951171875 983.9755859375 544.4150390625Q987.7421875 544.87890625 994.013671875 544.87890625Q999.654296875 544.87890625 1003.1240234375 544.65625Q1006.59375 544.43359375 1008.3935546875 543.6728515625Q1010.193359375 542.912109375 1010.82421875 541.390625Q1011.455078125 539.869140625 1011.455078125 537.30859375ZM993.828125 512.37109375Q987.779296875 512.37109375 984.0869140625 512.81640625Q980.39453125 513.26171875 978.46484375 514.5419921875Q976.53515625 515.822265625 975.8486328125 518.345703125Q975.162109375 520.869140625 975.125 524.98828125H1011.26953125V521.42578125Q1011.26953125 518.75390625 1010.6572265625 516.9912109375Q1010.044921875 515.228515625 1008.263671875 514.2080078125Q1006.482421875 513.1875 1003.0126953125 512.779296875Q999.54296875 512.37109375 993.828125 512.37109375Z"/>
<path fill="#071126" d="M1048.958984375 550.81640625Q1041.166015625 550.81640625 1036.4345703125 550.296875Q1031.703125 549.77734375 1029.2724609375 548.3671875Q1026.841796875 546.95703125 1026.0068359375 544.359375Q1025.171875 541.76171875 1025.171875 537.60546875H1032.0Q1032.0 539.943359375 1032.333984375 541.3720703125Q1032.66796875 542.80078125 1034.2265625 543.5615234375Q1035.78515625 544.322265625 1039.2919921875 544.6005859375Q1042.798828125 544.87890625 1049.14453125 544.87890625Q1055.861328125 544.87890625 1059.5908203125 544.6005859375Q1063.3203125 544.322265625 1064.953125 543.5615234375Q1066.5859375 542.80078125 1066.9384765625 541.353515625Q1067.291015625 539.90625 1067.291015625 537.53125Q1067.291015625 534.63671875 1066.771484375 533.189453125Q1066.251953125 531.7421875 1064.322265625 531.2412109375Q1062.392578125 530.740234375 1058.162109375 530.703125L1041.166015625 530.517578125Q1034.59765625 530.443359375 1031.146484375 529.404296875Q1027.6953125 528.365234375 1026.43359375 525.7490234375Q1025.171875 523.1328125 1025.171875 518.30859375Q1025.171875 513.818359375 1026.5634765625 511.369140625Q1027.955078125 508.919921875 1030.923828125 507.880859375Q1033.892578125 506.841796875 1038.642578125 506.6376953125Q1043.392578125 506.43359375 1050.109375 506.43359375Q1058.013671875 506.43359375 1062.6708984375 506.916015625Q1067.328125 507.3984375 1069.6474609375 508.734375Q1071.966796875 510.0703125 1072.6904296875 512.6123046875Q1073.4140625 515.154296875 1073.4140625 519.236328125H1066.5859375Q1066.5859375 516.82421875 1066.251953125 515.4326171875Q1065.91796875 514.041015625 1064.4521484375 513.3916015625Q1062.986328125 512.7421875 1059.7021484375 512.556640625Q1056.41796875 512.37109375 1050.48046875 512.37109375Q1043.7265625 512.37109375 1039.978515625 512.51953125Q1036.23046875 512.66796875 1034.560546875 513.224609375Q1032.890625 513.78125 1032.51953125 514.9873046875Q1032.1484375 516.193359375 1032.1484375 518.30859375Q1032.1484375 520.4609375 1032.3896484375 521.7041015625Q1032.630859375 522.947265625 1033.669921875 523.578125Q1034.708984375 524.208984375 1037.0654296875 524.4130859375Q1039.421875 524.6171875 1043.65234375 524.654296875L1058.310546875 524.802734375Q1064.916015625 524.876953125 1068.3486328125 525.8974609375Q1071.78125 526.91796875 1073.0244140625 529.6455078125Q1074.267578125 532.373046875 1074.267578125 537.53125Q1074.267578125 542.169921875 1072.9130859375 544.841796875Q1071.55859375 547.513671875 1068.58984375 548.7939453125Q1065.62109375 550.07421875 1060.7783203125 550.4453125Q1055.935546875 550.81640625 1048.958984375 550.81640625Z"/>
<path fill="#071126" d="M1081.267578125 550.0V509.625H1088.392578125V550.0ZM1081.267578125 500.125V493.0H1088.392578125V500.125Z"/>
<path fill="#071126" d="M1121.62890625 566.291015625Q1115.951171875 566.291015625 1111.2939453125 566.0126953125Q1106.63671875 565.734375 1103.296875 564.6767578125Q1099.95703125 563.619140625 1098.138671875 561.3369140625Q1096.3203125 559.0546875 1096.3203125 555.083984375H1103.4453125Q1103.4453125 557.681640625 1105.4677734375 558.794921875Q1107.490234375 559.908203125 1111.53515625 560.130859375Q1115.580078125 560.353515625 1121.62890625 560.353515625Q1126.119140625 560.353515625 1129.310546875 560.0751953125Q1132.501953125 559.796875 1134.5244140625 558.4609375Q1136.546875 557.125 1137.4931640625 553.9892578125Q1138.439453125 550.853515625 1138.439453125 545.17578125V544.173828125Q1135.841796875 547.513671875 1131.2958984375 548.58984375Q1126.75 549.666015625 1120.033203125 549.666015625Q1113.09375 549.666015625 1108.1953125 548.8681640625Q1103.296875 548.0703125 1100.2353515625 545.84375Q1097.173828125 543.6171875 1095.763671875 539.38671875Q1094.353515625 535.15625 1094.353515625 528.328125Q1094.353515625 521.0546875 1095.763671875 516.67578125Q1097.173828125 512.296875 1100.2353515625 510.0888671875Q1103.296875 507.880859375 1108.1953125 507.1572265625Q1113.09375 506.43359375 1120.033203125 506.43359375Q1126.75 506.43359375 1131.2958984375 507.4169921875Q1135.841796875 508.400390625 1138.439453125 511.77734375V507.25H1145.564453125V545.47265625Q1145.416015625 552.5234375 1143.783203125 556.6982421875Q1142.150390625 560.873046875 1139.1259765625 562.9326171875Q1136.1015625 564.9921875 1131.7041015625 565.6416015625Q1127.306640625 566.291015625 1121.62890625 566.291015625ZM1138.439453125 528.328125Q1138.439453125 523.021484375 1137.7900390625 519.8486328125Q1137.140625 516.67578125 1135.2666015625 515.0615234375Q1133.392578125 513.447265625 1129.7373046875 512.9091796875Q1126.08203125 512.37109375 1120.033203125 512.37109375Q1113.650390625 512.37109375 1109.9208984375 512.9091796875Q1106.19140625 513.447265625 1104.373046875 515.0615234375Q1102.5546875 516.67578125 1102.0166015625 519.8486328125Q1101.478515625 523.021484375 1101.478515625 528.328125Q1101.478515625 533.15234375 1102.0166015625 536.1953125Q1102.5546875 539.23828125 1104.3544921875 540.87109375Q1106.154296875 542.50390625 1109.90234375 543.1162109375Q1113.650390625 543.728515625 1120.033203125 543.728515625Q1126.08203125 543.728515625 1129.7373046875 543.1162109375Q1133.392578125 542.50390625 1135.2666015625 540.87109375Q1137.140625 539.23828125 1137.7900390625 536.1953125Q1138.439453125 533.15234375 1138.439453125 528.328125Z"/>
<path fill="#071126" d="M1152.861328125 550.0V507.25H1159.986328125V512.927734375Q1161.58203125 510.775390625 1163.9384765625 509.328125Q1166.294921875 507.880859375 1170.2470703125 507.1572265625Q1174.19921875 506.43359375 1180.619140625 506.43359375Q1189.005859375 506.43359375 1193.8486328125 508.06640625Q1198.69140625 509.69921875 1200.732421875 513.892578125Q1202.7734375 518.0859375 1202.7734375 525.767578125V550.0H1195.611328125V525.767578125Q1195.611328125 521.388671875 1194.869140625 518.716796875Q1194.126953125 516.044921875 1192.3271484375 514.671875Q1190.52734375 513.298828125 1187.373046875 512.8349609375Q1184.21875 512.37109375 1179.357421875 512.37109375Q1171.935546875 512.37109375 1167.705078125 513.595703125Q1163.474609375 514.8203125 1161.73046875 517.4365234375Q1159.986328125 520.052734375 1159.986328125 524.24609375V550.0Z"/>
<path fill="#0877d1" d="M1023.8095703125 611.48583984375Q1023.8095703125 608.41064453125 1024.38330078125 606.322265625Q1024.95703125 604.23388671875 1026.58642578125 602.9716796875Q1028.2158203125 601.70947265625 1031.325439453125 601.147216796875Q1034.43505859375 600.5849609375 1039.48388671875 600.56201171875H1047.69970703125Q1051.27978515625 600.56201171875 1053.287841796875 600.321044921875Q1055.2958984375 600.080078125 1056.2138671875 599.403076171875Q1057.1318359375 598.72607421875 1057.349853515625 597.429443359375Q1057.56787109375 596.1328125 1057.56787109375 594.021484375Q1057.56787109375 591.818359375 1057.15478515625 590.55615234375Q1056.74169921875 589.2939453125 1055.525390625 588.72021484375Q1054.30908203125 588.146484375 1051.933837890625 587.98583984375Q1049.55859375 587.8251953125 1045.63427734375 587.8251953125H1040.63134765625Q1036.5234375 587.8251953125 1034.056396484375 587.98583984375Q1031.58935546875 588.146484375 1030.3271484375 588.72021484375Q1029.06494140625 589.2939453125 1028.640380859375 590.55615234375Q1028.2158203125 591.818359375 1028.2158203125 594.021484375H1023.8095703125Q1023.8095703125 591.01513671875 1024.486572265625 589.064453125Q1025.16357421875 587.11376953125 1026.942138671875 586.01220703125Q1028.720703125 584.91064453125 1031.9794921875 584.463134765625Q1035.23828125 584.015625 1040.40185546875 584.015625H1045.86376953125Q1050.84375 584.015625 1054.0107421875 584.463134765625Q1057.177734375 584.91064453125 1058.910400390625 586.01220703125Q1060.64306640625 587.11376953125 1061.30859375 589.064453125Q1061.97412109375 591.01513671875 1061.97412109375 594.021484375Q1061.97412109375 597.876953125 1060.952880859375 600.114501953125Q1059.931640625 602.35205078125 1057.372802734375 603.304443359375Q1054.81396484375 604.2568359375 1050.1552734375 604.2568359375H1040.0576171875Q1035.94970703125 604.2568359375 1033.56298828125 604.5322265625Q1031.17626953125 604.8076171875 1030.02880859375 605.576416015625Q1028.88134765625 606.34521484375 1028.548583984375 607.76806640625Q1028.2158203125 609.19091796875 1028.2158203125 611.48583984375V616.328125H1060.57421875V620.0H1023.8095703125Z"/>
<path fill="#f57c00" d="M1107.361328125 601.916015625Q1107.361328125 597.876953125 1107.0859375 595.2607421875Q1106.810546875 592.64453125 1106.064697265625 591.1298828125Q1105.31884765625 589.615234375 1103.907470703125 588.915283203125Q1102.49609375 588.21533203125 1100.2470703125 588.020263671875Q1097.998046875 587.8251953125 1094.71630859375 587.8251953125H1089.98876953125Q1086.70703125 587.8251953125 1084.4580078125 588.020263671875Q1082.208984375 588.21533203125 1080.797607421875 588.915283203125Q1079.38623046875 589.615234375 1078.640380859375 591.1298828125Q1077.89453125 592.64453125 1077.619140625 595.2607421875Q1077.34375 597.876953125 1077.34375 601.916015625V602.833984375Q1077.34375 606.7353515625 1077.619140625 609.3056640625Q1077.89453125 611.8759765625 1078.640380859375 613.41357421875Q1079.38623046875 614.951171875 1080.797607421875 615.70849609375Q1082.208984375 616.4658203125 1084.4580078125 616.6953125Q1086.70703125 616.9248046875 1089.98876953125 616.9248046875H1094.71630859375Q1097.998046875 616.9248046875 1100.2470703125 616.6953125Q1102.49609375 616.4658203125 1103.907470703125 615.70849609375Q1105.31884765625 614.951171875 1106.064697265625 613.41357421875Q1106.810546875 611.8759765625 1107.0859375 609.3056640625Q1107.361328125 606.7353515625 1107.361328125 602.833984375ZM1072.9375 602.833984375V601.916015625Q1072.9375 597.234375 1073.396484375 594.055908203125Q1073.85546875 590.87744140625 1074.97998046875 588.880859375Q1076.1044921875 586.88427734375 1078.043701171875 585.82861328125Q1079.98291015625 584.77294921875 1082.92041015625 584.394287109375Q1085.85791015625 584.015625 1089.98876953125 584.015625H1094.71630859375Q1098.84716796875 584.015625 1101.78466796875 584.394287109375Q1104.72216796875 584.77294921875 1106.661376953125 585.82861328125Q1108.6005859375 586.88427734375 1109.72509765625 588.880859375Q1110.849609375 590.87744140625 1111.30859375 594.055908203125Q1111.767578125 597.234375 1111.767578125 601.916015625V602.833984375Q1111.767578125 608.50244140625 1111.021728515625 612.03662109375Q1110.27587890625 615.57080078125 1108.405517578125 617.45263671875Q1106.53515625 619.33447265625 1103.20751953125 620.034423828125Q1099.8798828125 620.734375 1094.71630859375 620.734375H1089.98876953125Q1084.8251953125 620.734375 1081.49755859375 620.034423828125Q1078.169921875 619.33447265625 1076.299560546875 617.45263671875Q1074.42919921875 615.57080078125 1073.683349609375 612.03662109375Q1072.9375 608.50244140625 1072.9375 602.833984375Z"/>
<path fill="#0877d1" d="M1123.8095703125 611.48583984375Q1123.8095703125 608.41064453125 1124.38330078125 606.322265625Q1124.95703125 604.23388671875 1126.58642578125 602.9716796875Q1128.2158203125 601.70947265625 1131.325439453125 601.147216796875Q1134.43505859375 600.5849609375 1139.48388671875 600.56201171875H1147.69970703125Q1151.27978515625 600.56201171875 1153.287841796875 600.321044921875Q1155.2958984375 600.080078125 1156.2138671875 599.403076171875Q1157.1318359375 598.72607421875 1157.349853515625 597.429443359375Q1157.56787109375 596.1328125 1157.56787109375 594.021484375Q1157.56787109375 591.818359375 1157.15478515625 590.55615234375Q1156.74169921875 589.2939453125 1155.525390625 588.72021484375Q1154.30908203125 588.146484375 1151.933837890625 587.98583984375Q1149.55859375 587.8251953125 1145.63427734375 587.8251953125H1140.63134765625Q1136.5234375 587.8251953125 1134.056396484375 587.98583984375Q1131.58935546875 588.146484375 1130.3271484375 588.72021484375Q1129.06494140625 589.2939453125 1128.640380859375 590.55615234375Q1128.2158203125 591.818359375 1128.2158203125 594.021484375H1123.8095703125Q1123.8095703125 591.01513671875 1124.486572265625 589.064453125Q1125.16357421875 587.11376953125 1126.942138671875 586.01220703125Q1128.720703125 584.91064453125 1131.9794921875 584.463134765625Q1135.23828125 584.015625 1140.40185546875 584.015625H1145.86376953125Q1150.84375 584.015625 1154.0107421875 584.463134765625Q1157.177734375 584.91064453125 1158.910400390625 586.01220703125Q1160.64306640625 587.11376953125 1161.30859375 589.064453125Q1161.97412109375 591.01513671875 1161.97412109375 594.021484375Q1161.97412109375 597.876953125 1160.952880859375 600.114501953125Q1159.931640625 602.35205078125 1157.372802734375 603.304443359375Q1154.81396484375 604.2568359375 1150.1552734375 604.2568359375H1140.0576171875Q1135.94970703125 604.2568359375 1133.56298828125 604.5322265625Q1131.17626953125 604.8076171875 1130.02880859375 605.576416015625Q1128.88134765625 606.34521484375 1128.548583984375 607.76806640625Q1128.2158203125 609.19091796875 1128.2158203125 611.48583984375V616.328125H1160.57421875V620.0H1123.8095703125Z"/>
<path fill="#f57c00" d="M1189.57568359375 620.734375Q1184.412109375 620.734375 1181.2451171875 620.18359375Q1178.078125 619.6328125 1176.40283203125 618.37060546875Q1174.7275390625 617.1083984375 1174.142333984375 615.008544921875Q1173.55712890625 612.90869140625 1173.55712890625 609.810546875V594.2509765625Q1173.55712890625 591.24462890625 1174.234130859375 589.259521484375Q1174.9111328125 587.2744140625 1176.689697265625 586.126953125Q1178.46826171875 584.9794921875 1181.72705078125 584.49755859375Q1184.98583984375 584.015625 1190.1494140625 584.015625H1195.611328125Q1200.68310546875 584.015625 1203.815673828125 584.463134765625Q1206.9482421875 584.91064453125 1208.6005859375 586.01220703125Q1210.2529296875 587.11376953125 1210.838134765625 589.064453125Q1211.42333984375 591.01513671875 1211.42333984375 594.021484375H1207.01708984375Q1207.01708984375 591.818359375 1206.684326171875 590.55615234375Q1206.3515625 589.2939453125 1205.215576171875 588.72021484375Q1204.07958984375 588.146484375 1201.73876953125 587.98583984375Q1199.39794921875 587.8251953125 1195.3818359375 587.8251953125H1190.37890625Q1186.27099609375 587.8251953125 1183.803955078125 588.020263671875Q1181.3369140625 588.21533203125 1180.07470703125 588.8349609375Q1178.8125 589.45458984375 1178.387939453125 590.751220703125Q1177.96337890625 592.0478515625 1177.96337890625 594.2509765625V602.283203125Q1180.0517578125 599.87353515625 1185.5595703125 599.87353515625H1197.6767578125Q1202.47314453125 599.87353515625 1205.36474609375 600.412841796875Q1208.25634765625 600.9521484375 1209.736572265625 602.134033203125Q1211.216796875 603.31591796875 1211.710205078125 605.209228515625Q1212.20361328125 607.1025390625 1212.20361328125 609.810546875Q1212.20361328125 612.90869140625 1211.618408203125 615.008544921875Q1211.033203125 617.1083984375 1209.35791015625 618.37060546875Q1207.6826171875 619.6328125 1204.515625 620.18359375Q1201.3486328125 620.734375 1196.18505859375 620.734375ZM1207.79736328125 609.810546875Q1207.79736328125 607.76806640625 1207.47607421875 606.52880859375Q1207.15478515625 605.28955078125 1206.0302734375 604.64697265625Q1204.90576171875 604.00439453125 1202.5419921875 603.786376953125Q1200.17822265625 603.568359375 1196.0703125 603.568359375H1189.6904296875Q1185.58251953125 603.568359375 1183.21875 603.786376953125Q1180.85498046875 604.00439453125 1179.73046875 604.64697265625Q1178.60595703125 605.28955078125 1178.28466796875 606.52880859375Q1177.96337890625 607.76806640625 1177.96337890625 609.810546875Q1177.96337890625 612.10546875 1178.296142578125 613.50537109375Q1178.62890625 614.9052734375 1179.7763671875 615.651123046875Q1180.923828125 616.39697265625 1183.310546875 616.660888671875Q1185.697265625 616.9248046875 1189.80517578125 616.9248046875H1195.95556640625Q1200.0634765625 616.9248046875 1202.4501953125 616.660888671875Q1204.8369140625 616.39697265625 1205.984375 615.651123046875Q1207.1318359375 614.9052734375 1207.464599609375 613.50537109375Q1207.79736328125 612.10546875 1207.79736328125 609.810546875Z"/>
</g>
</svg>
